<svg aria-hidden="true" style="position: absolute; width: 0; height: 0; overflow: hidden;" version="1.1" xmlns="http://www.w3.org/2000/svg" xmlns:xlink="http://www.w3.org/1999/xlink">
<defs>
<symbol id="icon-burger" viewBox="0 0 53 32">
<path fill="#ed2985" style="fill: var(--color1, #ed2985)" d="M0 0h53.333v3.556h-53.333v-3.556zM0 14.222h53.333v3.556h-53.333v-3.556zM53.333 28.444h-53.333v3.556h53.333v-3.556z"></path>
</symbol>
<symbol id="icon-facebook" viewBox="0 0 15 32">
<path fill="#fff" style="fill: var(--color2, #fff)" d="M3.328 31.996h6.394v-15.487h4.475l0.47-5.18h-4.944v-2.95c0-1.228 0.262-1.709 1.478-1.709h3.466v-5.34h-4.433c-4.765 0-6.905 2.029-6.905 5.901v4.139h-3.328v5.233h3.328v15.393z"></path>
</symbol>
<symbol id="icon-hide-arrow" viewBox="0 0 58 32">
<path stroke-linejoin="miter" stroke-linecap="butt" stroke-miterlimit="4" stroke-width="2.9091" d="M55.273 29.091l-26.182-26.182-26.182 26.182"></path>
</symbol>
<symbol id="icon-instagram" viewBox="0 0 32 32">
<path fill="#fff" style="fill: var(--color2, #fff)" d="M16.609 8.361c-4.348 0-7.813 3.533-7.813 7.813 0 4.348 3.465 7.812 7.813 7.812 4.28 0 7.812-3.465 7.812-7.812 0-4.28-3.533-7.813-7.812-7.813zM16.609 21.269c-2.785 0-5.095-2.242-5.095-5.095 0-2.785 2.242-5.027 5.095-5.027 2.785 0 5.027 2.242 5.027 5.027 0 2.853-2.242 5.095-5.027 5.095zM26.527 8.090c0-1.019-0.815-1.834-1.834-1.834s-1.834 0.815-1.834 1.834 0.815 1.834 1.834 1.834c1.019 0 1.834-0.815 1.834-1.834zM31.69 9.924c-0.136-2.446-0.679-4.62-2.446-6.386s-3.94-2.31-6.386-2.446c-2.514-0.136-10.054-0.136-12.568 0-2.446 0.136-4.552 0.679-6.386 2.446-1.766 1.766-2.31 3.94-2.446 6.386-0.136 2.514-0.136 10.054 0 12.568 0.136 2.446 0.679 4.552 2.446 6.386 1.834 1.766 3.94 2.31 6.386 2.446 2.514 0.136 10.054 0.136 12.568 0 2.446-0.136 4.62-0.679 6.386-2.446 1.766-1.834 2.31-3.94 2.446-6.386 0.136-2.514 0.136-10.054 0-12.568zM28.429 25.141c-0.476 1.359-1.563 2.378-2.853 2.921-2.038 0.815-6.793 0.611-8.967 0.611-2.242 0-6.997 0.204-8.967-0.611-1.359-0.543-2.378-1.562-2.921-2.921-0.815-1.97-0.611-6.726-0.611-8.967 0-2.174-0.204-6.929 0.611-8.967 0.543-1.291 1.563-2.31 2.921-2.853 1.97-0.815 6.726-0.611 8.967-0.611 2.174 0 6.929-0.204 8.967 0.611 1.291 0.476 2.31 1.563 2.853 2.853 0.815 2.038 0.611 6.793 0.611 8.967 0 2.242 0.204 6.997-0.611 8.967z"></path>
</symbol>
<symbol id="icon-left-arrow" viewBox="0 0 61 32">
<path stroke-linejoin="miter" stroke-linecap="butt" stroke-miterlimit="4" stroke-width="2.6667" d="M2.667 16h58.667M2.667 16l14.667 14.667M2.667 16l14.667-14.667"></path>
</symbol>
<symbol id="icon-left-show-arrow" viewBox="0 0 17 32">
<path fill="none" stroke="#ed2985" style="stroke: var(--color1, #ed2985)" stroke-linejoin="miter" stroke-linecap="butt" stroke-miterlimit="4" stroke-width="1.9394" d="M16.485 0.97l-14.545 15.030 14.545 15.030"></path>
</symbol>
<symbol id="icon-linkedin" viewBox="0 0 30 32">
<path fill="#fff" style="fill: var(--color2, #fff)" d="M6.907 11.72h-6.271v20.245h6.271v-20.245z"></path>
<path fill="#fff" style="fill: var(--color2, #fff)" d="M3.74 9.062c0.74 0 1.463-0.219 2.078-0.63s1.094-0.995 1.378-1.679c0.283-0.683 0.357-1.436 0.213-2.161s-0.501-1.392-1.024-1.915c-0.523-0.523-1.19-0.879-1.915-1.024s-1.478-0.070-2.161 0.213c-0.683 0.283-1.268 0.762-1.679 1.378s-0.63 1.338-0.63 2.078c-0.002 0.492 0.093 0.979 0.28 1.434s0.463 0.868 0.81 1.216c0.348 0.348 0.761 0.623 1.216 0.81s0.942 0.283 1.434 0.28z"></path>
<path fill="#fff" style="fill: var(--color2, #fff)" d="M16.935 21.334c0-2.913 1.305-4.504 3.756-4.504s3.406 1.592 3.406 4.536v10.632h6.303v-12.733c0-5.427-3.072-8.053-7.369-8.053-1.219-0.019-2.421 0.28-3.49 0.866s-1.967 1.439-2.606 2.477v-2.833h-6.016v20.245h6.016v-10.632z"></path>
</symbol>
<symbol id="icon-logo" viewBox="0 0 75 32">
<path fill="#fff" style="fill: var(--color2, #fff)" d="M75.355 20c0 6.627-5.399 12-12.056 12s-12.056-5.372-12.056-12 5.398-12 12.056-12c3.088 0 5.905 1.155 8.038 3.055v-11.055h4.019v20zM63.298 28.5c4.717 0 8.541-3.806 8.541-8.5s-3.824-8.5-8.541-8.5c-4.717 0-8.541 3.806-8.541 8.5s3.824 8.5 8.541 8.5zM0 20c0-6.627 5.399-12 12.056-12s12.056 5.372 12.056 12v12h-4.019v-3.055c-2.133 1.9-4.95 3.055-8.038 3.055-6.658 0-12.056-5.372-12.056-12zM12.056 28.5c4.717 0 8.541-3.806 8.541-8.5s-3.824-8.5-8.541-8.5c-4.717 0-8.54 3.807-8.54 8.5s3.824 8.5 8.54 8.5zM47.189 8c-3.843 0-7.266 2.417-8.535 6.027l-3.736 10.625c-0.706 2.006-2.606 3.348-4.741 3.348h-3.048v4h3.048c3.843 0 7.266-2.417 8.535-6.027l3.736-10.625c0.706-2.006 2.606-3.348 4.741-3.348h2.043v-4h-2.043z"></path>
</symbol>
<symbol id="icon-right-arrow" viewBox="0 0 17 32">
<path fill="none" stroke="#ed2985" style="stroke: var(--color1, #ed2985)" stroke-linejoin="miter" stroke-linecap="butt" stroke-miterlimit="4" stroke-width="1.9394" d="M22 6H0M22 6L16.5 11.5M22 6L16.5 0.5"></path>
</symbol>
<symbol id="icon-right-show-arrow" viewBox="0 0 17 32">
<path fill="none" stroke="#ed2985" style="stroke: var(--color1, #ed2985)" stroke-linejoin="miter" stroke-linecap="butt" stroke-miterlimit="4" stroke-width="1.9394" d="M0.97 0.97l14.545 15.030-14.545 15.030"></path>
</symbol>
<symbol id="icon-show-arrow" viewBox="0 0 58 32">
<path stroke-linejoin="miter" stroke-linecap="butt" stroke-miterlimit="4" stroke-width="2.9091" d="M2.909 2.909l26.182 26.182 26.182-26.182"></path>
</symbol>
</defs>
</svg>
