<svg width="19" height="20" viewBox="0 0 19 20" fill="none" xmlns="http://www.w3.org/2000/svg">
<path d="M4.31679 7.32471H0.397461V19.9779H4.31679V7.32471Z" fill="white"/>
<path d="M2.33769 5.66361C2.80003 5.66361 3.252 5.52651 3.63643 5.26965C4.02085 5.01278 4.32048 4.64769 4.49741 4.22053C4.67434 3.79338 4.72064 3.32335 4.63044 2.86989C4.54024 2.41643 4.3176 1.9999 3.99067 1.67297C3.66374 1.34604 3.24721 1.1234 2.79374 1.0332C2.34028 0.943001 1.87025 0.989294 1.4431 1.16623C1.01595 1.34316 0.650855 1.64278 0.393989 2.02721C0.137123 2.41164 2.13488e-05 2.8636 2.13488e-05 3.32595C-0.00129497 3.6333 0.0582716 3.93788 0.175284 4.22209C0.292297 4.5063 0.464438 4.76453 0.681773 4.98186C0.899108 5.1992 1.15733 5.37134 1.44155 5.48835C1.72576 5.60536 2.03033 5.66493 2.33769 5.66361Z" fill="white"/>
<path d="M10.5844 13.3335C10.5844 11.5131 11.4001 10.5183 12.932 10.5183C14.4639 10.5183 15.0608 11.5131 15.0608 13.3534V19.9983H19V12.0403C19 8.6482 17.0801 7.00686 14.3943 7.00686C13.6327 6.99523 12.8811 7.18164 12.2133 7.54784C11.5454 7.91404 10.9841 8.44746 10.5844 9.09584V7.32518H6.82422V19.9784H10.5844V13.3335Z" fill="white"/>
</svg>
