<svg width="73" height="31" viewBox="0 0 73 31" fill="none" xmlns="http://www.w3.org/2000/svg">
<path fill-rule="evenodd" clip-rule="evenodd" d="M73 19.3746C73 25.7948 67.7701 30.9992 61.3204 30.9992C54.8706 30.9992 49.6407 25.7948 49.6407 19.3746C49.6407 12.9544 54.8698 7.75 61.3204 7.75C64.3117 7.75 67.0404 8.86914 69.107 10.7098V0H73V19.3746ZM61.3204 27.6093C65.8897 27.6093 69.5941 23.9224 69.5941 19.3746C69.5941 14.8268 65.8897 11.1399 61.3204 11.1399C56.751 11.1399 53.0466 14.8268 53.0466 19.3746C53.0466 23.9224 56.751 27.6093 61.3204 27.6093ZM0 19.3746C0 12.9544 5.22986 7.75 11.6797 7.75C18.1294 7.75 23.3593 12.9544 23.3593 19.3746V31H19.4663V28.0402C17.3997 29.8809 14.671 31 11.6797 31C5.22986 31 0 25.7956 0 19.3746ZM11.6797 27.6093C16.249 27.6093 19.9534 23.9224 19.9534 19.3746C19.9534 14.8268 16.249 11.1399 11.6797 11.1399C7.11029 11.1399 3.40673 14.8276 3.40673 19.3746C3.40673 23.9216 7.11108 27.6093 11.6797 27.6093ZM45.7143 7.75C41.9917 7.75 38.6757 10.0912 37.4462 13.5888L33.827 23.882C33.1434 25.8249 31.302 27.1254 29.2337 27.1254H26.2814V31H29.2337C32.9564 31 36.2724 28.6588 37.5019 25.1612L41.1211 14.868C41.8047 12.9251 43.6461 11.6246 45.7143 11.6246H47.6934V7.75H45.7143Z" fill="white"/>
</svg>
